<?xml version="1.0" standalone="no"?>
<!DOCTYPE svg PUBLIC "-//W3C//DTD SVG 20010904//EN"
 "http://www.w3.org/TR/2001/REC-SVG-20010904/DTD/svg10.dtd">
<svg version="1.0" xmlns="http://www.w3.org/2000/svg"
 width="312.000000pt" height="312.000000pt" viewBox="0 0 312.000000 312.000000"
 preserveAspectRatio="xMidYMid meet">
<metadata>
Created by potrace 1.14, written by Peter Selinger 2001-2017
</metadata>
<g transform="translate(0.000000,312.000000) scale(0.100000,-0.100000)"
fill="#000000" stroke="none">
<path d="M0 1560 l0 -1560 1560 0 1560 0 0 1560 0 1560 -1560 0 -1560 0 0
-1560z m1133 664 c111 -64 223 -130 250 -145 26 -16 52 -29 57 -29 6 0 10 -4
10 -10 0 -5 4 -10 9 -10 5 0 64 -32 132 -71 68 -40 224 -130 346 -200 123 -71
227 -129 232 -129 7 0 374 209 556 317 93 55 84 116 84 -537 0 -537 -1 -578
-17 -582 -26 -6 -1981 -3 -1987 3 -2 3 23 21 58 40 168 95 523 301 530 308 5
5 -64 51 -152 102 -89 51 -161 96 -161 99 0 6 279 169 311 182 43 17 44 16
-159 133 l-74 43 -136 -80 c-75 -44 -154 -89 -175 -99 -21 -11 -35 -23 -33
-28 3 -4 62 -41 132 -81 l126 -72 -53 -30 c-123 -68 -163 -91 -353 -202 l-200
-116 -35 21 c-20 12 -80 46 -133 77 l-97 55 45 29 c25 15 47 28 49 28 2 0 87
48 187 107 101 58 197 114 213 123 69 40 106 63 103 65 -4 3 -352 205 -505
292 -62 35 -114 67 -117 71 -4 6 120 80 423 253 25 14 101 58 168 98 67 39
126 71 132 71 6 0 11 5 11 10 0 6 5 10 11 10 6 0 101 -52 212 -116z m1205 42
c67 -39 122 -73 122 -77 0 -10 -170 -108 -230 -133 -60 -25 -201 -31 -269 -10
-55 16 -132 57 -133 70 0 10 363 223 378 221 5 -1 65 -33 132 -71z"/>
</g>
</svg>
